<svg xmlns="http://www.w3.org/2000/svg" viewBox="0 0 100 100">
  <style>
    .p { fill: #141413; } .a { fill: #D97757; }
    @media (prefers-color-scheme: dark) { .p { fill: #FAF9F5; } }
  </style>
  <defs><mask id="kc-mark-cut" maskUnits="userSpaceOnUse" x="0" y="0" width="100" height="100"><rect width="100" height="100" fill="#fff"/><path d="M42.5 27 Q40 46 44 68" fill="none" stroke="#000" stroke-width="3" stroke-linecap="round"/><path d="M57.5 27 Q60 46 56 68" fill="none" stroke="#000" stroke-width="3" stroke-linecap="round"/><circle cx="45" cy="78" r="2.4" fill="#000"/><circle cx="55" cy="78" r="2.4" fill="#000"/></mask></defs><rect x="12" y="9" width="76" height="7" rx="3.5" class="a"/><g mask="url(#kc-mark-cut)"><path d="M36 22 H64 Q70 22 72 28 L78 52 Q80 62 71 68 L63 72 L69 92 Q69.5 95.5 66.5 94 L57 86 Q50 90 43 86 L33.5 94 Q30.5 95.5 31 92 L37 72 L29 68 Q20 62 22 52 L28 28 Q30 22 36 22 Z" class="p"/></g><path d="M40 25 V14 Q40 7.5 45 7.5 Q47.5 7.5 47.5 10 V13 H44.5 V25 Z M60 25 V14 Q60 7.5 55 7.5 Q52.5 7.5 52.5 10 V13 H55.5 V25 Z" class="p"/>
</svg>
